<?xml version="1.0" encoding="iso-8859-1"?>
<!-- Generator: Adobe Illustrator 19.0.0, SVG Export Plug-In . SVG Version: 6.00 Build 0)  -->
<svg version="1.1" id="Capa_1" xmlns="http://www.w3.org/2000/svg" xmlns:xlink="http://www.w3.org/1999/xlink" x="0px" y="0px"
	 viewBox="0 0 512 512" style="enable-background:new 0 0 512 512;" xml:space="preserve">
<path style="fill:#87D2F3;" d="M448,96h-64c-11.767-0.035-21.298-9.566-21.333-21.333v-64L448,96z"/>
<g>
	<path style="fill:#FFFFFF;" d="M448,96v384c-0.035,11.768-9.566,21.298-21.333,21.333H85.333C73.566,501.298,64.035,491.768,64,480
		V32c0.035-11.767,9.566-21.298,21.333-21.333h277.333v64C362.702,86.434,372.233,95.965,384,96H448z"/>
	<path style="fill:#FFFFFF;" d="M352,224v21.333H234.667v-32H352V224z"/>
</g>
<path style="fill:#87D2F3;" d="M384,256v42.667H128v-96c0-5.891,4.776-10.667,10.667-10.667H224c5.891,0,10.667,4.776,10.667,10.667
	v42.667h138.667C379.224,245.333,384,250.109,384,256z"/>
<g>
	<path style="fill:#2170A6;" d="M181.333,390.251v-48.917H288V320H181.333c-11.538-0.244-21.089,8.911-21.333,20.449
		c-0.006,0.295-0.006,0.589,0,0.884v48.917l-24.459-24.459l-15.083,15.083l42.667,42.667c4.165,4.164,10.917,4.164,15.083,0
		l42.667-42.667l-15.083-15.083L181.333,390.251z"/>
	<path style="fill:#2170A6;" d="M333.792,344.459l-42.667,42.667l15.083,15.083l24.459-24.459v48.917H224V448h106.667
		c11.538,0.244,21.089-8.911,21.333-20.449c0.006-0.295,0.006-0.589,0-0.884v-48.917l24.459,24.459l15.083-15.083l-42.667-42.667
		C344.709,340.295,337.957,340.295,333.792,344.459L333.792,344.459z"/>
	<path style="fill:#2170A6;" d="M117.333,64H224v21.333H117.333V64z"/>
	<path style="fill:#2170A6;" d="M117.333,106.667h21.333V128h-21.333V106.667z"/>
	<path style="fill:#2170A6;" d="M160,106.667h21.333V128H160V106.667z"/>
	<path style="fill:#2170A6;" d="M455.541,88.459L370.208,3.125c-2-2.001-4.713-3.125-7.541-3.125H85.333c-17.673,0-32,14.327-32,32
		l0,0v448c0,17.673,14.327,32,32,32h341.333c17.673,0,32-14.327,32-32V96C458.666,93.171,457.542,90.459,455.541,88.459z
		 M437.333,480c0,5.891-4.776,10.667-10.667,10.667H85.333c-5.891,0-10.667-4.776-10.667-10.667V32
		c0-5.891,4.776-10.667,10.667-10.667H352v53.333c0,17.673,14.327,32,32,32h21.333V85.333H384c-5.891,0-10.667-4.776-10.667-10.667
		V36.416l64,64V480z"/>
	<path style="fill:#2170A6;" d="M373.333,234.667h-128V224h117.333v-10.667c0-5.891-4.776-10.667-10.667-10.667H245.333
		c0-11.782-9.551-21.333-21.333-21.333h-85.333c-11.782,0-21.333,9.551-21.333,21.333v96h21.333v-96H224v32h-32V256h181.333v42.667
		h21.333V256C394.667,244.218,385.115,234.667,373.333,234.667z"/>
</g>
<g>
</g>
<g>
</g>
<g>
</g>
<g>
</g>
<g>
</g>
<g>
</g>
<g>
</g>
<g>
</g>
<g>
</g>
<g>
</g>
<g>
</g>
<g>
</g>
<g>
</g>
<g>
</g>
<g>
</g>
</svg>
